<svg width="31" height="27" viewBox="0 0 31 27" fill="none" xmlns="http://www.w3.org/2000/svg">
<path d="M10.7515 20.0727H26.1844C26.6996 20.0727 27.1493 19.6496 27.1493 19.0808C27.1493 18.5121 26.6996 18.0889 26.1844 18.0889H10.9761C10.2222 18.0889 9.75957 17.5596 9.64051 16.7533L9.42892 15.3648H26.2104C28.1412 15.3648 29.1331 14.1742 29.4107 12.2835L30.4687 5.28753C30.4967 5.1214 30.5145 4.95369 30.5217 4.78536C30.5217 4.1506 30.0455 3.71388 29.3182 3.71388H7.72324L7.47159 2.03472C7.33956 1.01627 6.96943 0.5 5.6209 0.5H0.978383C0.449695 0.5 0 0.963801 0 1.49305C0 2.03472 0.449695 2.49795 0.978947 2.49795H5.44825L7.56413 17.018C7.8423 18.8957 8.83366 20.0727 10.7515 20.0727ZM28.2732 5.71071L27.3355 12.0454C27.2294 12.8652 26.7932 13.3679 26.0129 13.3679L9.13891 13.3809L8.01439 5.71071H28.2732ZM11.7965 26.4999C12.0784 26.5023 12.3581 26.4484 12.6191 26.3416C12.88 26.2348 13.1171 26.077 13.3166 25.8776C13.516 25.6782 13.6737 25.4411 13.7805 25.1801C13.8874 24.9192 13.9412 24.6395 13.9389 24.3575C13.94 24.0759 13.8854 23.7967 13.7782 23.5363C13.671 23.2758 13.5132 23.0391 13.314 22.84C13.1148 22.6408 12.8782 22.483 12.6177 22.3758C12.3573 22.2685 12.0781 22.2139 11.7965 22.2151C10.5935 22.2151 9.64108 23.1676 9.64108 24.3575C9.64108 25.561 10.5935 26.4999 11.7965 26.4999ZM24.1611 26.4999C25.3646 26.4999 26.3165 25.561 26.3165 24.3575C26.3165 23.167 25.3646 22.2151 24.1611 22.2151C22.9711 22.2151 22.0057 23.1676 22.0057 24.3575C22.0057 25.561 22.9711 26.4999 24.1611 26.4999Z" fill="#292929"/>
</svg>
